<svg width="241" height="237" viewBox="0 0 241 237" fill="none" xmlns="http://www.w3.org/2000/svg">
<path d="M115.701 236.846C179.049 236.846 230.402 185.492 230.402 122.145C230.402 58.797 179.049 7.44362 115.701 7.44362C52.3533 7.44362 0.999878 58.797 0.999878 122.145C0.999878 185.492 52.3533 236.846 115.701 236.846Z" fill="url(#paint0_linear_410_2)"/>
<path d="M177.581 34.134H50.5168C42.5967 34.134 36.1761 40.5545 36.1761 48.4746H191.922C191.922 40.5545 185.501 34.134 177.581 34.134Z" fill="url(#paint1_linear_410_2)"/>
<path d="M36.1761 48.0828H191.922V166.701C191.922 171.975 189.827 177.033 186.098 180.762C182.369 184.491 177.311 186.586 172.037 186.586H56.0613C50.7874 186.586 45.7295 184.491 42.0004 180.762C38.2712 177.033 36.1761 171.975 36.1761 166.701V48.0828Z" fill="url(#paint2_linear_410_2)"/>
<path d="M165.15 63.0654H62.9983C60.8709 63.0654 59.1464 64.7881 59.1464 66.9132C59.1464 69.0383 60.8709 70.761 62.9983 70.761H165.15C167.278 70.761 169.002 69.0383 169.002 66.9132C169.002 64.7881 167.278 63.0654 165.15 63.0654Z" fill="url(#paint3_linear_410_2)"/>
<path d="M165.15 95.7609H62.9983C60.8709 95.7609 59.1464 97.4837 59.1464 99.6087C59.1464 101.734 60.8709 103.457 62.9983 103.457H165.15C167.278 103.457 169.002 101.734 169.002 99.6087C169.002 97.4837 167.278 95.7609 165.15 95.7609Z" fill="url(#paint4_linear_410_2)"/>
<path d="M165.15 128.456H62.9983C60.8709 128.456 59.1464 130.179 59.1464 132.304C59.1464 134.429 60.8709 136.152 62.9983 136.152H165.15C167.278 136.152 169.002 134.429 169.002 132.304C169.002 130.179 167.278 128.456 165.15 128.456Z" fill="url(#paint5_linear_410_2)"/>
<path d="M165.15 161.152H62.9984C60.871 161.152 59.1465 162.875 59.1465 165C59.1465 167.125 60.871 168.847 62.9984 168.847H165.15C167.278 168.847 169.002 167.125 169.002 165C169.002 162.875 167.278 161.152 165.15 161.152Z" fill="url(#paint6_linear_410_2)"/>
<path d="M62.3065 121.444H7.91223C3.54236 121.444 -0.00012207 124.986 -0.00012207 129.356V207.104C-0.00012207 211.474 3.54236 215.016 7.91223 215.016H62.3065C66.6764 215.016 70.2189 211.474 70.2189 207.104V129.356C70.2189 124.986 66.6764 121.444 62.3065 121.444Z" fill="url(#paint7_linear_410_2)"/>
<path d="M217.15 0H157.069C154.269 0 152 2.26958 152 5.06924V33.3086C152 36.1083 154.269 38.3778 157.069 38.3778H217.15C219.949 38.3778 222.219 36.1083 222.219 33.3086V5.06924C222.219 2.26958 219.949 0 217.15 0Z" fill="url(#paint8_linear_410_2)"/>
<path d="M56.2368 160.338H13.9819C12.5591 160.338 11.4056 161.492 11.4056 162.915V162.923C11.4056 164.346 12.5591 165.499 13.9819 165.499H56.2368C57.6596 165.499 58.8131 164.346 58.8131 162.923V162.915C58.8131 161.492 57.6596 160.338 56.2368 160.338Z" fill="url(#paint9_linear_410_2)"/>
<path d="M56.2607 196.653H14.3691C12.9585 196.653 11.8149 197.771 11.8149 199.149V199.157C11.8149 200.536 12.9585 201.653 14.3691 201.653H56.2607C57.6714 201.653 58.8149 200.536 58.8149 199.157V199.149C58.8149 197.771 57.6714 196.653 56.2607 196.653Z" fill="url(#paint10_linear_410_2)"/>
<path d="M56.2607 177.653H14.3691C12.9585 177.653 11.8149 178.771 11.8149 180.149V180.157C11.8149 181.536 12.9585 182.653 14.3691 182.653H56.2607C57.6714 182.653 58.8149 181.536 58.8149 180.157V180.149C58.8149 178.771 57.6714 177.653 56.2607 177.653Z" fill="url(#paint11_linear_410_2)"/>
<path d="M29.4317 133.45H17.0837C14.3485 133.45 12.1312 135.667 12.1312 138.402V141.829C12.1312 144.564 14.3485 146.781 17.0837 146.781H29.4317C32.1669 146.781 34.3842 144.564 34.3842 141.829V138.402C34.3842 135.667 32.1669 133.45 29.4317 133.45Z" fill="url(#paint12_linear_410_2)"/>
<path d="M166.828 25.0127C170.047 25.0127 172.656 22.4034 172.656 19.1847C172.656 15.966 170.047 13.3568 166.828 13.3568C163.609 13.3568 161 15.966 161 19.1847C161 22.4034 163.609 25.0127 166.828 25.0127Z" fill="#7C9DE5"/>
<path d="M187.655 25.0127C190.874 25.0127 193.483 22.4034 193.483 19.1847C193.483 15.966 190.874 13.3568 187.655 13.3568C184.436 13.3568 181.827 15.966 181.827 19.1847C181.827 22.4034 184.436 25.0127 187.655 25.0127Z" fill="#7C9DE5"/>
<path d="M208.482 25.0127C211.701 25.0127 214.31 22.4034 214.31 19.1847C214.31 15.966 211.701 13.3568 208.482 13.3568C205.263 13.3568 202.654 15.966 202.654 19.1847C202.654 22.4034 205.263 25.0127 208.482 25.0127Z" fill="#7C9DE5"/>
<path d="M192.681 164.017L177.92 180.289L219.525 218.027L234.285 201.754L192.681 164.017Z" fill="url(#paint13_linear_410_2)"/>
<path fill-rule="evenodd" clip-rule="evenodd" d="M208.279 137.083C208.279 171.126 180.682 198.723 146.64 198.723C112.597 198.723 84.9999 171.126 84.9999 137.083C84.9999 103.041 112.597 75.4436 146.64 75.4436C180.682 75.4436 208.279 103.041 208.279 137.083ZM198.824 137.083C198.824 165.904 175.46 189.268 146.639 189.268C117.818 189.268 94.4545 165.904 94.4545 137.083C94.4545 108.262 117.818 84.8985 146.639 84.8985C175.46 84.8985 198.824 108.262 198.824 137.083Z" fill="#6388DB"/>
<path d="M146.639 189.268C175.46 189.268 198.824 165.904 198.824 137.083C198.824 108.262 175.46 84.8985 146.639 84.8985C117.818 84.8985 94.4545 108.262 94.4545 137.083C94.4545 165.904 117.818 189.268 146.639 189.268Z" fill="url(#paint14_linear_410_2)" fill-opacity="0.2"/>
<path d="M159.179 137.083L174.104 122.126C175.502 120.646 176.268 118.679 176.239 116.644C176.21 114.608 175.389 112.664 173.949 111.224C172.51 109.785 170.565 108.963 168.53 108.935C166.494 108.906 164.528 109.672 163.048 111.07L148.09 126.028L133.166 111.07C132.448 110.31 131.585 109.702 130.627 109.281C129.67 108.86 128.638 108.636 127.592 108.621C126.547 108.607 125.509 108.802 124.54 109.195C123.571 109.588 122.691 110.172 121.952 110.911C121.212 111.651 120.629 112.531 120.235 113.5C119.842 114.468 119.647 115.506 119.662 116.552C119.677 117.598 119.901 118.63 120.322 119.587C120.742 120.544 121.35 121.407 122.11 122.126L137.06 137.083L122.11 152.041C121.35 152.759 120.742 153.622 120.322 154.58C119.901 155.537 119.677 156.569 119.662 157.615C119.647 158.66 119.842 159.698 120.235 160.667C120.629 161.636 121.212 162.516 121.952 163.255C122.691 163.995 123.571 164.578 124.54 164.972C125.509 165.365 126.547 165.56 127.592 165.545C128.638 165.53 129.67 165.306 130.627 164.885C131.585 164.465 132.448 163.857 133.166 163.096L148.124 148.139L163.081 163.096C164.575 164.412 166.514 165.109 168.504 165.044C170.493 164.98 172.383 164.159 173.789 162.749C175.194 161.34 176.009 159.447 176.068 157.457C176.126 155.468 175.424 153.531 174.104 152.041L159.179 137.083Z" fill="url(#paint15_linear_410_2)"/>
<path d="M185.051 165.906C185.051 168.899 168.626 171.326 148.365 171.326C128.105 171.326 111.68 168.899 111.68 165.906C111.68 162.913 128.105 160.487 148.365 160.487C168.626 160.487 185.051 162.913 185.051 165.906Z" fill="#EC5575" fill-opacity="0.56"/>
<path d="M105.968 201.905C106.486 199.761 109.535 199.761 110.053 201.905L111.795 209.121C111.98 209.887 112.578 210.485 113.344 210.67L120.56 212.412C122.704 212.929 122.704 215.979 120.56 216.497L113.344 218.239C112.578 218.423 111.98 219.022 111.795 219.788L110.053 227.004C109.535 229.148 106.486 229.148 105.968 227.004L104.226 219.788C104.041 219.022 103.443 218.423 102.677 218.239L95.4607 216.497C93.3167 215.979 93.3167 212.929 95.4607 212.412L102.677 210.67C103.443 210.485 104.041 209.887 104.226 209.121L105.968 201.905Z" fill="url(#paint16_linear_410_2)"/>
<path d="M22.9679 9.90435C23.4854 7.76032 26.5351 7.76032 27.0526 9.90435L28.7945 17.1204C28.9795 17.8865 29.5777 18.4848 30.3439 18.6697L37.5599 20.4116C39.7039 20.9292 39.7039 23.9788 37.5599 24.4964L30.3439 26.2383C29.5777 26.4232 28.9795 27.0215 28.7945 27.7876L27.0526 35.0036C26.5351 37.1477 23.4854 37.1477 22.9679 35.0037L21.226 27.7876C21.041 27.0215 20.4428 26.4232 19.6766 26.2383L12.4606 24.4964C10.3166 23.9788 10.3166 20.9292 12.4606 20.4116L19.6766 18.6697C20.4428 18.4848 21.041 17.8865 21.226 17.1204L22.9679 9.90435Z" fill="url(#paint17_linear_410_2)"/>
<path fill-rule="evenodd" clip-rule="evenodd" d="M111.128 11.0734C113.062 11.0734 114.63 9.5056 114.63 7.57165C114.63 5.63769 113.062 4.06992 111.128 4.06992C109.194 4.06992 107.626 5.63769 107.626 7.57165C107.626 9.5056 109.194 11.0734 111.128 11.0734ZM111.128 13.6997C114.512 13.6997 117.256 10.9561 117.256 7.57165C117.256 4.18723 114.512 1.44362 111.128 1.44362C107.743 1.44362 105 4.18723 105 7.57165C105 10.9561 107.743 13.6997 111.128 13.6997Z" fill="url(#paint18_linear_410_2)"/>
<path d="M220.014 107.497C219.681 106.191 220.887 105.014 222.184 105.379L230.943 107.84C232.241 108.205 232.657 109.837 231.692 110.779L225.181 117.133C224.217 118.074 222.595 117.619 222.262 116.313L220.014 107.497Z" fill="url(#paint19_linear_410_2)"/>
<path d="M14.7127 92.462C16.0192 92.1307 17.1944 93.3379 16.828 94.635L14.3554 103.39C13.9891 104.687 12.356 105.101 11.4159 104.136L5.06987 97.6167C4.12972 96.6509 4.58761 95.0296 5.89407 94.6983L14.7127 92.462Z" fill="url(#paint20_linear_410_2)"/>
<path d="M181.713 213.462C183.019 213.131 184.194 214.338 183.828 215.635L181.356 224.391C180.989 225.688 179.356 226.102 178.416 225.136L172.07 218.617C171.13 217.651 171.588 216.03 172.894 215.699L181.713 213.462Z" fill="url(#paint21_linear_410_2)"/>
<path fill-rule="evenodd" clip-rule="evenodd" d="M228.128 62.0734C230.062 62.0734 231.63 60.5056 231.63 58.5716C231.63 56.6377 230.062 55.0699 228.128 55.0699C226.194 55.0699 224.626 56.6377 224.626 58.5716C224.626 60.5056 226.194 62.0734 228.128 62.0734ZM228.128 64.6997C231.512 64.6997 234.256 61.9561 234.256 58.5716C234.256 55.1872 231.512 52.4436 228.128 52.4436C224.743 52.4436 222 55.1872 222 58.5716C222 61.9561 224.743 64.6997 228.128 64.6997Z" fill="url(#paint22_linear_410_2)"/>
<path d="M219.522 218.029L234.282 201.756L236.505 203.773C238.662 205.729 239.954 208.463 240.096 211.372C240.237 214.28 239.218 217.126 237.261 219.283C235.305 221.44 232.571 222.732 229.662 222.874C226.754 223.015 223.908 221.996 221.751 220.039L219.527 218.023L219.522 218.029Z" fill="#6388DB"/>
<defs>
<linearGradient id="paint0_linear_410_2" x1="119.129" y1="-38.5614" x2="121.522" y2="377.322" gradientUnits="userSpaceOnUse">
<stop stop-color="white" stop-opacity="0"/>
<stop offset="1" stop-color="#8AAAF0"/>
</linearGradient>
<linearGradient id="paint1_linear_410_2" x1="-0.272061" y1="54.6606" x2="241.414" y2="56.2514" gradientUnits="userSpaceOnUse">
<stop stop-color="#BCCEF5"/>
<stop offset="1" stop-color="#2563EB"/>
</linearGradient>
<linearGradient id="paint2_linear_410_2" x1="-7.20956" y1="177.605" x2="339.687" y2="183.165" gradientUnits="userSpaceOnUse">
<stop stop-color="white"/>
<stop offset="1" stop-color="#BAD0FF"/>
</linearGradient>
<linearGradient id="paint3_linear_410_2" x1="-10.1553" y1="227.078" x2="254.311" y2="227.078" gradientUnits="userSpaceOnUse">
<stop stop-color="#668CE1"/>
<stop offset="1" stop-color="#D0DFFF"/>
</linearGradient>
<linearGradient id="paint4_linear_410_2" x1="-10.1553" y1="227.078" x2="254.311" y2="227.078" gradientUnits="userSpaceOnUse">
<stop stop-color="#668CE1"/>
<stop offset="1" stop-color="#D0DFFF"/>
</linearGradient>
<linearGradient id="paint5_linear_410_2" x1="-10.1553" y1="227.078" x2="254.311" y2="227.078" gradientUnits="userSpaceOnUse">
<stop stop-color="#668CE1"/>
<stop offset="1" stop-color="#D0DFFF"/>
</linearGradient>
<linearGradient id="paint6_linear_410_2" x1="-10.1553" y1="227.078" x2="254.311" y2="227.078" gradientUnits="userSpaceOnUse">
<stop stop-color="#668CE1"/>
<stop offset="1" stop-color="#D0DFFF"/>
</linearGradient>
<linearGradient id="paint7_linear_410_2" x1="-7.20956" y1="177.605" x2="450.469" y2="228.386" gradientUnits="userSpaceOnUse">
<stop stop-color="white"/>
<stop offset="1" stop-color="#BAD0FF"/>
</linearGradient>
<linearGradient id="paint8_linear_410_2" x1="-7.20956" y1="177.605" x2="339.687" y2="183.165" gradientUnits="userSpaceOnUse">
<stop stop-color="white"/>
<stop offset="1" stop-color="#BAD0FF"/>
</linearGradient>
<linearGradient id="paint9_linear_410_2" x1="267.974" y1="243.907" x2="-20.7192" y2="243.907" gradientUnits="userSpaceOnUse">
<stop stop-color="#D2E0FF"/>
<stop offset="1" stop-color="#658CE3"/>
</linearGradient>
<linearGradient id="paint10_linear_410_2" x1="267.974" y1="243.907" x2="-20.7192" y2="243.907" gradientUnits="userSpaceOnUse">
<stop stop-color="#D2E0FF"/>
<stop offset="1" stop-color="#658CE3"/>
</linearGradient>
<linearGradient id="paint11_linear_410_2" x1="267.974" y1="243.907" x2="-20.7192" y2="243.907" gradientUnits="userSpaceOnUse">
<stop stop-color="#D2E0FF"/>
<stop offset="1" stop-color="#658CE3"/>
</linearGradient>
<linearGradient id="paint12_linear_410_2" x1="406.605" y1="234.567" x2="-30.3881" y2="234.567" gradientUnits="userSpaceOnUse">
<stop offset="0.243799" stop-color="#D2F7FF"/>
<stop offset="1" stop-color="#6A8DDA"/>
</linearGradient>
<linearGradient id="paint13_linear_410_2" x1="-0.272061" y1="54.6606" x2="241.414" y2="56.2514" gradientUnits="userSpaceOnUse">
<stop stop-color="#BCCEF5"/>
<stop offset="1" stop-color="#2563EB"/>
</linearGradient>
<linearGradient id="paint14_linear_410_2" x1="120.054" y1="0" x2="238.176" y2="310.736" gradientUnits="userSpaceOnUse">
<stop stop-color="white"/>
<stop offset="1" stop-color="#D0DFFF"/>
</linearGradient>
<linearGradient id="paint15_linear_410_2" x1="1.14789" y1="15.9352" x2="237.184" y2="240.865" gradientUnits="userSpaceOnUse">
<stop stop-color="#FF698D"/>
<stop offset="1" stop-color="#FF3868"/>
</linearGradient>
<linearGradient id="paint16_linear_410_2" x1="-0.272061" y1="54.6606" x2="241.414" y2="56.2514" gradientUnits="userSpaceOnUse">
<stop stop-color="#BCCEF5"/>
<stop offset="1" stop-color="#2563EB"/>
</linearGradient>
<linearGradient id="paint17_linear_410_2" x1="-0.272061" y1="54.6606" x2="241.414" y2="56.2514" gradientUnits="userSpaceOnUse">
<stop stop-color="#BCCEF5"/>
<stop offset="1" stop-color="#2563EB"/>
</linearGradient>
<linearGradient id="paint18_linear_410_2" x1="-0.272061" y1="54.6606" x2="241.414" y2="56.2514" gradientUnits="userSpaceOnUse">
<stop stop-color="#BCCEF5"/>
<stop offset="1" stop-color="#2563EB"/>
</linearGradient>
<linearGradient id="paint19_linear_410_2" x1="-0.272061" y1="54.6606" x2="241.414" y2="56.2514" gradientUnits="userSpaceOnUse">
<stop stop-color="#BCCEF5"/>
<stop offset="1" stop-color="#2563EB"/>
</linearGradient>
<linearGradient id="paint20_linear_410_2" x1="-0.272061" y1="54.6606" x2="241.414" y2="56.2514" gradientUnits="userSpaceOnUse">
<stop stop-color="#BCCEF5"/>
<stop offset="1" stop-color="#2563EB"/>
</linearGradient>
<linearGradient id="paint21_linear_410_2" x1="-0.272061" y1="54.6606" x2="241.414" y2="56.2514" gradientUnits="userSpaceOnUse">
<stop stop-color="#BCCEF5"/>
<stop offset="1" stop-color="#2563EB"/>
</linearGradient>
<linearGradient id="paint22_linear_410_2" x1="-0.272061" y1="54.6606" x2="241.414" y2="56.2514" gradientUnits="userSpaceOnUse">
<stop stop-color="#BCCEF5"/>
<stop offset="1" stop-color="#2563EB"/>
</linearGradient>
</defs>
</svg>
